<?xml version="1.0" encoding="utf-8"?>
<!-- Generator: Adobe Illustrator 21.0.1, SVG Export Plug-In . SVG Version: 6.00 Build 0)  -->
<svg version="1.1" id="Layer_1" xmlns="http://www.w3.org/2000/svg" xmlns:xlink="http://www.w3.org/1999/xlink" x="0px" y="0px"
	 viewBox="0 0 1002 668" style="enable-background:new 0 0 1002 668;" xml:space="preserve">
<style type="text/css">
	.st0{opacity:0.4;fill:#22B573;enable-background:new    ;}
	.st1{opacity:0.4;fill:#FF7BAC;enable-background:new    ;}
	.st2{opacity:0.4;fill:#FF00FF;enable-background:new    ;}
	.st3{opacity:0.4;fill:#BDCCD4;enable-background:new    ;}
	.st4{opacity:0.4;fill:#8CC63F;enable-background:new    ;}
	.st5{opacity:0.4;fill:#FCEE21;}
	.st6{opacity:0.4;}
	.st7{fill:#0071BC;}
	.st8{opacity:0.4;fill:#2E3192;enable-background:new    ;}
	.st9{fill:#FCEE21;}
	.st10{opacity:0.4;fill:#29ABE2;enable-background:new    ;}
</style>
<path class="st0" d="M172.2,285.7c-1.8-2-4.7-3.7-4.6-5.4c0.1-5.5-1.3-11.9,5.4-15.2c6-3,8-8.3,8.5-14.7c0.2-3,0.9-6.2,2.3-8.8
	c0.9-1.6,3.4-3.1,5.3-3.2c9.7-0.6,15.9-5.5,19.6-14.3c0.7-1.7,3.1-2.7,4.7-4.1c2.5-2.2,5-4.5,7.6-6.5c1.8-1.4,3.9-2.7,6-3.6
	c2.1-1,4.3-1.5,6.5-2.2c0.9-0.3,2-1.1,2.7-0.9c4.7,1.3,9.4,2.8,14.1,4.1c2.1,0.6,4.1,1.2,6.2,1.5c8,1.1,16,2.2,24,3.2
	c7.1,0.9,9.6,6.9,12.4,11.9c3.6,6.5,8.5,10.9,14.7,14.9c7.7,4.9,16.1,9.5,21,17.8c0.7,1.1,2,2.6,1.7,3.5c-2.5,8.1,4.2,9.5,8.8,11.8
	c3.6,1.8,4.2,3.4,2.7,6.9c-2.8,6.5-7.8,10.3-14.1,13.3c-3.7,1.8-7.4,4.5-9.9,7.8c-5.7,7.3-9.5,16.4-16.2,22.3
	c-4.9,4.3-8.2,12.1-16.9,11.9c-2.5-0.1-4.9,3.3-7.7,4.1c-10.4,2.8-21,5.5-31.6,7.6c-2.3,0.5-5.8-1-7.5-2.7
	c-5.6-5.5-12.6-6.1-19.7-7.1c-4.8-0.6-9.6-2-14.4-2.7c-2.7-0.4-5.7-1-8.2-0.3c-4.6,1.3-7.5-0.4-10.6-3.3c-1.9-1.7-4.7-3.2-7.2-3.5
	c-6.1-0.7-9.8-3.7-10.3-9.9c-0.4-4.9,0.8-10-3.5-14.1c-0.5-0.5,0.3-3.3,1.2-4.2c3.3-3.2,4.8-6.7,2.8-11.2
	C165.7,285.7,170.6,286.9,172.2,285.7z"/>
<path class="st1" d="M615.4,331.6c-3.3,1.8-6.6,3.7-9.9,5.5c-0.6,0.3-0.9,1.1-1.5,1.3c-1.9,0.7-3.9,1.3-5.8,1.9
	c-0.3-1.9-0.9-3.8-0.8-5.7c0.1-1.8,1-3.5,1.4-5.3c0.6-2.9,1.6-5.7-3-6.9c-3.2-0.8-2-3.3-0.3-5c5-4.9,7-10.5,3.8-17.1
	c-0.7-1.4-2.5-3.3-3.8-3.3c-3.8,0-3.9-2-4.4-5c-2.3-12.3,5.3-20.3,11.7-28.9c0.2-0.3,0.4-0.5,0.7-0.7c7-3.6,14-7.3,21.1-10.8
	c3.5-1.8,7.2-3.3,10.8-4.8c11.2-4.6,22.5-9.1,33.8-13.5c1.6-0.6,3.6-0.3,5.4-0.4c1.6-0.2,3.9,0.1,4.8-0.8c7.2-7.4,16.5-4.3,25-5.2
	c2-0.2,4-0.3,5.9-0.9c4.7-1.5,9.2-1.6,13.3,1.5c0.1,0.1,0.3,0.2,0.4,0.2c4.6,2.3,22.6-0.7,25.2-5c2.2-3.5,2.7-8.1,4.1-12.1
	c0.8-2.3,1.4-4.9,2.7-6.9c4.8-7.3,9.5-14.8,15.1-21.5c3.8-4.5,8.7-8.2,13.7-11.5c1.5-1,5.1-0.6,6.8,0.6c4,2.8,7.6,6.4,11.2,9.9
	c5.8,5.7,11.5,11.6,17.3,17.3c3.2,3.2,3.6,6.6,1.1,10.3c-1.6,2.3-3.6,4.4-5.3,6.6c-3.9,4.9-7.5,10-11.7,14.6
	c-3.4,3.8-7.4,7.1-11.4,10.4c-4.3,3.6-5.7,8-5.7,13.6c-0.2,10.6-1.1,21.2-2,31.7c-0.6,7.6-9.2,18.6-18.3,20
	c-4.1,0.6-8.1,4.8-11.2,8.2c-3,3.2-5.7,5.4-10.2,4.7c-6.1-0.9-10.6,1.7-15.1,5.8c-6.3,5.9-13.4,10.8-20.1,16.3
	c-1.8,1.4-3.8,3-4.7,4.9c-1.8,4.1-4.8,5.2-8.8,4.9c-5.7-0.5-9.2,1.8-11.6,7.3c-2.8,6.3-8.9,7.9-15.2,8.7c-4.3,0.5-8.5,1.3-12.8,1.6
	c-2.6,0.2-5.3,0.1-7.9-0.2c-3.4-0.3-6.9-1-10.3-1.5c-1.5-0.2-3.2-0.2-4.3-0.9c-4.2-2.9-8.3-2.7-13.2-1.9c-3.1,0.5-8.3-1.9-9.9-4.6
	c-1.9-3.3-0.7-8.2,3-11.1c1.7-1.3,4.1-1.9,5.4-3.4c2.1-2.3,5-5.2,4.9-7.7c-0.3-4.3-4.7-4.3-8.3-4.2
	C615.8,332.4,615.6,332,615.4,331.6z"/>
<path class="st2" d="M589.1,282.6c0,3.8-0.1,6.1,0,8.4c0.1,1.8,0.8,3.1,2.7,3.7c5.3,1.7,8,6.9,6.8,12.5c-1.2,5.7-4.9,9.3-10.9,10.3
	c-1.6,0.3-2.2,1.2-2.6,2.5c-1.4,4.7-5.1,5.3-9.2,4.7c-2.3-0.3-4.7-1.1-6.6-2c-7.6-3.6-15.9-5-23.6-8.1c-3.7-1.5-7.4-2.6-11.1-1.9
	c-5.8,1.1-9.9-1-13.7-5c-6.7-6.9-20.1-7.9-27.9-2.4c-2.1,1.5-4.5,2.1-6.6,1.2c-4.5-2.1-9.6-2.3-13.7-5.2c-3.9-2.7-8-4.8-12.7-5.7
	c-2.5-0.5-4.4-1.7-5.3-4.6c-5.1-16.1-3.8-31.8,2.2-47.3c1.3-3.5,3.7-5.9,7.2-7.1c7.7-2.5,15.2-3.1,23.3-0.8c5.3,1.5,11.1,3.3,17,2.3
	c2.9-0.5,4.5,0.8,4.5,3.8c0,3.9,2,5.7,5.7,6.1c3,0.3,6,1.2,7.8,3.8c4.8,7.1,11.9,9.6,20,9.9c2.4,0.1,3.8,1.8,5.4,3.3
	c3.7,3.7,7.8,4.5,12.8,2.6c5.1-1.9,10.9-0.8,15.9-3.5c1.2-0.7,2.5,0.4,3.5,1.3C585.7,270.7,591.1,275.6,589.1,282.6z"/>
<path class="st3" d="M597.5,446c-3.1,0.2-6.5-0.1-6.7-5.1c0-0.5-0.5-1.3-0.6-1.3c-4.6,1.1-5.7-4-9.1-5.2c-3.9-1.3-11.7,2.2-14.8,7.2
	c-3.2,5.2-6.6,9.6-13.5,9.3c-1.8-0.1-3,1-3.9,2.6c-2.2,3.9-5.5,4.6-9.4,2.9c-2.9-1.2-5.9-2.4-8.6-4c-2.4-1.4-4.6-2.6-7.4-2.6
	c-1.5,0-3.4-0.1-3.9-1.7c-1.3-4.5-3.9-4-7.3-2.5c-2,0.9-4.1,1.2-6.2,1.8c-6.1,1.8-10.6,0.2-14.1-5.1c-1.1-1.6-2.5-3.3-4.4-2.8
	c-4.7,1.3-9.7,1.8-14.1,4.3c-1.1,0.6-2.5,2-3.4,1.8c-5.3-1.6-10.3,1.2-15.1,0.9c-13.3-0.8-26.6-0.2-39.9-0.5
	c-9.8-0.2-12.2-1.7-11.8-11.6c0.3-6.4-2.3-6.9-7.1-6.5c-3.1,0.3-5.8-0.4-8.4-2.4c-2.7-2.1-6.5-1-9.9-2.5c-5.4-2.5-9.1-7.2-14.2-9.8
	c-0.7-0.4-1.2-1.2-1.8-1.7c-2.7-2.1-6.1-3-6.9-7.2c-1.6-8.7-4-17.2,0.1-25.8c1-2,2.3-3.8,4.1-4.9c2.6-1.6,4.4-3.3,5.8-6.3
	c1.6-3.4,6.2-4,9.2-4.2c6.3-0.5,11.5-3.8,17.2-5.6c6-1.9,10.7-0.2,15.6,2.1c0.9,0.4,1.7,1.4,2.7,0.7c1.3-0.9,0.5-2,0.1-3.1
	c-1.5-3.9-1-7.3,1.9-10.6c3.7-4.4,3.1-10.4,5.3-15.4c2.6-5.9,0.1-11.7,0-17.5c-0.2-6.6,3.9-10.7,8.5-13.8c5.4-3.6,12.1-4.4,18.2-6.3
	c4.5-1.4,7.7,1.5,10.1,4.8c3.1,4.2,6.9,5.9,12.3,5.9c4.3,0,8.7,1.9,13,3c4.7,1.2,9,1.4,12.9-2.5c5-4.9,14.4-5.1,20.6-2.1
	c5.3,2.5,10.2,5.4,14.8,8.9c1.1,0.8,2.4,1.3,3.8,0.9c7.4-2.5,13.5,0.6,19.5,4.5c1.7,1.1,3.5,1.3,5.2,0.4c2.7-1.3,5.5-1.2,8.3-1.3
	c3.4-0.2,5.8,0.8,7.8,4c3.6,5.7,7.5,5.9,12.1,1c1.4-1.4,2.4-3.9,4.7-2c2.8,2.3,8,1.6,8.2,6.8c0.1,2.2-0.6,4.2-1.2,6.3
	c-1.2,4.1-1.4,8,1.5,11.8c2.5,3.3,2.8,7.4,2.4,11.4c-0.3,2.8-0.3,5.6-0.7,8.4c-0.6,5.2,1,9.3,5,12.8c3.5,3.1,4.6,7.5,5,12.1
	c1.4,16.8-2.6,33.4-2.2,50.2C606.9,444.6,604.4,446.1,597.5,446z"/>
<path class="st4" d="M813,304.8c0.4,5.3-0.6,10.9,1.5,16.5c1.4,3.5-1.2,6.9-4.1,8.9c-6.2,4.3-5.2,11.5-7.1,17.4
	c-0.7,2.3,1.6,3.7,4,4.2c8.9,1.6,13.8,7.1,15.5,15.8c1.3,6.6-3.9,14.9-10.5,16.1c-2.9,0.6-5.5,1.6-7.8,3.2c-2.7,1.8-5.5,2.9-8.8,3.1
	c-4.5,0.3-7,3.4-8.5,7.4c-0.6,1.5-1.1,3.1-1.6,4.7c-1.4,4.1-4.1,4.6-7.4,2.5c-2.6-1.7-5.2-2.8-8.3-2.8c-2.3,0-4.8-1.1-5.3-3.1
	c-1.5-6.4-7.9-6.9-11.9-10.2c-5.2-4.3-10.5-1.5-15.2,1.3c-3.6,2.1-7,2.7-10.9,1.3c-4.6-1.7-7.5-0.4-9.4,4.3
	c-2.4,6-6.2,10.8-11.3,14.8c-3.8,3-5.9,7.1-7,12.2c-3.2,14.9-11.4,26.4-25.4,33c-2.9,1.3-5.8,0.7-8.3-1.6c-1.9-1.8-4.1-3.3-6.8-4
	c-2-0.6-3.4-0.6-4.7,1.3c-2.6,3.9-6,2.5-8.3,0.1c-2.2-2.4-4.5-3.2-7.4-3.1c-3.5,0.1-6.8-0.1-9.5-3.2c-2.1-2.5-5.3-1-8.1-0.9
	c-5.9,0.1-6.6-0.9-4-5.9c1.4-2.6,1.9-5.1-0.9-7.1c-2.1-1.5-2.8-3.6-2.7-6.1c0.2-3.5-0.6-6.9-1.1-10.4c-0.8-5.8,1.3-11.4,1.6-17.2
	c0.4-6.8-0.4-13.1-3-19.3c-1.7-4.1-2.7-8.5,0.9-11.6c3.9-3.4,8.8-5.7,14.2-3.7c2.6,0.9,4.6,0.9,7.1,0c1.9-0.7,4.3-0.7,6.4-0.7
	c7.6,0,15.1,1.8,23,0.2c8.5-1.7,17.5-0.7,24.7-7.1c1.8-1.6,4.7-1.7,6.5,0c3.2,3,5.8,1.1,8.5-0.4c2.7-1.6,1.4-3.9,0.8-6.2
	c-1.6-5.8-0.2-7.8,4.7-11.4c6.2-4.5,12.1-9.4,17.6-14.6c5.7-5.3,11.4-9.7,19.8-8.5c3.1,0.4,5-1.3,7.1-3.6c3.8-4.4,7.6-8.5,13.7-11
	c7.3-3,14.7-7,16.9-16.6c1.6-7,12.2-8.7,17.5-3.6c2.7,2.7,5.4,5.4,8.9,7.1c2.9,1.5,4.3,4.1,4.3,7.4C813,297.3,813,300.9,813,304.8z"
	/>
<path class="st5" d="M690,534L690,534c-0.3-1.5-1.3-2.7-2.3-3.8c-4.5-5-5-8.7-2-14.9c2.7-5.6,2.7-6.4-3.2-7.3c-9.5-1.5-12-9-13.8-16
	c-1.5-5.8-3.5-11.8-2.8-18.1c0.6-5.2,3.3-9.9,2.4-15.4c-0.3-1.6,1.3-3.1,2.8-3.9c9.2-4.5,13.6-13.5,19.5-20.9
	c2.4-3,3.1-7.9,3.2-12.3c0.1-2.6,0.8-4.8,2.7-6.7c6.3-6.3,12.8-12.3,16.2-21.1c1.3-3.5,6.6-5.3,10-3.5c6,3.2,10.7-0.5,15.8-1.6
	c5.2-1.1,10.1-1.5,15,1.2c2.3,1.3,3.8,2.9,4.6,5.5c2.1,7.4,3.4,8.3,11.2,8.4c1.3,0,2.8-0.4,4,0.1c6.2,2.7,7.5-1.6,8.5-5.9
	s3.8-5.1,7.7-6.4c7.3-2.4,15.5-3.2,21.4-9.1c2.5-2.5,5.1-2.5,8.6-1.9c5.9,1,10.3,4.3,14.7,7.5c3.2,2.3,4,6.7,3.6,9.8
	c-0.9,7.9,3.3,13.3,7.7,18.5c5.6,6.6,10.4,13.9,17,19.5c3.5,3,3.6,7.7,6.4,11.1c0.9,1.1-0.2,2.4-1.6,3.1c-5.5,3-5.6,8.5-5.8,13.6
	c-0.1,2.4,0.7,4.9,0.5,7.4c-0.3,3.6,0.5,6.3,4.4,7.2c2.1,0.5,2.9,2.1,3.4,3.9c1.4,6.3,2.9,12.5,4,18.8c0.5,2.7,1.2,5,2.9,7.2
	c4.3,5.5,3.9,11.9,2.7,18.1c-0.4,2.4-1.2,4.7-1.5,7.2c-0.6,5-5.2,7.7-8.3,10.5c-4.8,4.3-4.5,8.9-2.9,13.4c2.1,5.9,0.4,12.3,3.1,18
	c1,2-0.9,4.1-2.5,5.6c-4.4,4.1-8.8,8.2-9.6,14.7c-0.2,1.8-1.9,2.2-3.5,2.2c-2.2,0-4.3,0-6.5,0c-3.3,0.1-7.2-0.6-3,4.7
	c1.8,2.3-1.4,7.6-5,9c-1.2,0.5-2.6,0.7-3.7,1.3c-6.5,3.6-8.5,3.1-12-3.3c-0.8-1.4-1.3-3.1-3.3-3.4c-0.6,1.9-1.2,3.8-1.9,5.6
	c-4,10.5-11.2,13.3-21.5,8.6c-1.9-0.9-3.7-2.2-6-2.3c-2.2-0.1-3.3-1.2-3.5-3.4c-0.3-2.6-1.9-4.9-4.4-4.4c-7,1.2-12.4-2.9-18.4-4.9
	c-1.9-0.6-3.8-1-5.7-1.5c-3.7-0.8-7.8-1.9-9-6.1c-0.9-3.2-2.6-3.7-5.4-3.7c-11.5-0.2-12.3-1.2-15.3-12.2c-1-3.6-1.9-7-1.8-10.7
	c0.1-2-0.9-3.6-2.2-4.9c-2.2-2.2-2.6-5.8-4.1-7.5c-3.8-4.3-4.2-10.6-7.9-13.9c-4.6-4-9.8-7.7-15.2-10.7c-1.4-0.5-2.9-0.8-4.4-0.7
	c-0.5,0-1-0.1-1.4,0.1l-0.4,0.2c0,3.8-0.5,7.9,5.5,7.6c2,5.1,8.3,5,11.3,8.8c2.9,3.7,5.5,7.5,8.1,11.4c1.9,2.7,1.5,5.7,0.5,8.6
	c-1.8,5.5-6.4,9.6-8.1,15.3c-0.7,2.2-9.1,2.8-12.1,0.9c-2.4-1.5-4.6-3.2-7.5-3.7c-0.7-0.1-1.4-0.8-2-1.4c-1.6-1.5-2.9-3-3.7-5.2
	c-3.5-9.2-8.9-17.7-5.2-28.5C680.9,541.1,684.5,537,690,534z"/>
<g class="st6">
	<path class="st7" d="M452.9,270.5c0.1,5.5,0,9.4,1.4,13.3c2.3,6.3-1.6,11-8.2,12.4c-4.9,1-10.4,1.6-13.8,6.3
		c-1.1,1.5-2.6,1.6-4,0.8c-2.8-1.5-4.1-0.2-5.6,2.1c-2.8,4.3-7.2,4.4-9.4-0.1c-3.4-6.9-10.1-7.3-16-9.3c-1.5-0.5-3.5-0.3-4.8-1.1
		c-12.4-7.9-26.3-8.8-40.4-8.9c-4.5,0-8.3,0-10.1-5.6c-1-3.2-5-5-8.3-6c-3.4-1-4.5-3.5-4.1-5.8c1.4-7.8-4.3-11.4-8.9-15.1
		c-6.6-5.3-13.8-9.7-20.7-14.7c-4.8-3.4-7.1-8.8-9.7-13.7c-2.9-5.5-7.7-8.2-13.1-8.6c-7-0.5-13.6-3-20.7-2.6
		c-6,0.4-11.2-2.1-13.9-8.1c-0.6-1.3-1.6-1.6-2.8-1.8c-1.9-0.4-2.9-1.6-2.8-3.6c0.1-1.8,0.9-3.1,2.6-3.9c6.8-3.3,13-8,20.8-8.7
		c0.7-0.1,1.7-0.7,2-1.3c3.3-7.7,10.9-10.5,17.2-14.4c8.7-5.4,12.6-13.1,5.6-21.8c-3.5-4.4-2.6-7.9,2.6-10.4c5-2.4,8.5-5.2,9.9-11.4
		c0.9-4.2,3.6-9.1,9.4-9.8c0.9-0.1,1.9-0.8,2.5-1.5c4.8-5.2,10.8-6.1,17.4-4.9c1.6,0.3,3.5,0.4,4.2-0.9c3.8-7.5,14.1-8,17.2-16.4
		c1.4-3.7,5.4-4.3,9-3.6c2.8,0.6,5.3,0.2,7.6-1.2c4.8-3,10.7-1.7,15.7-4.5c2.4-1.3,5.8,1.2,6.9,3.8c2.3,5.8,7.3,7.4,12.3,8
		c5.7,0.8,11.5,1.2,17.3-0.8c3.9-1.4,8.1-1.8,11.6,1.8c2.3,2.5,4.5,1,6.5-0.7c5.8-4.9,7.6-4.7,12.3,1.4c0.3,0.4,0.7,0.8,0.8,1.2
		c2.7,7.2,7.3,11.9,15.4,12.7c2.4,0.2,4.7,1.5,5.2,4.6c0.4,2.1,2.4,2,4,2.1c3.8,0,7.7,0,11.5,0c7.4,0.1,10.5,2.7,10.8,10
		c0.2,5.4-0.5,10.9,1.1,16.2c0.6,2,0,3.3-3,2.6c-5.5-1.2-8.8,2.9-11.9,6.5c-2.8,3.2-2.9,6.6,0.1,10.3c2.4,2.9,5.1,6.8,5.4,9.8
		c0.6,6.1,4.2,11.5,3.8,17.7c-0.5,8.3-0.1,16.3,6.9,22.4c3.9,3.4,4.1,8,2.1,11.9c-2,4.1-4.4,8.9-10.5,8.6c-2.7-0.1-5.4,0.3-8,0
		c-7.1-0.8-12.7,3.4-18.5,6.1c-3.5,1.6-5.4,5.1-6.4,9.1C454.9,258,452.4,264.8,452.9,270.5z"/>
</g>
<path class="st8" d="M691.3,108.2c8.7-5.4,10.9-5.2,17.8,1.9c5.7,6,12.4,11.5,16.4,18.5c3.3,5.7,6.7,10.8,11.6,15.1
	c3,2.7,3,5.8,1.1,9c-1.6,2.8-1.2,5,1,7.2c1.8,1.8,3.3,3.8,5.2,5.4c3.7,3,5.6,6.4,5.2,11.6c-0.5,6.6,6,10.7,12.2,8.7
	c1.1-0.3,2.8,0.3,3.7,1.1c0.5,0.4,0.1,2.4-0.5,3.3c-3.6,5.3-7.9,10.1-10.9,15.7c-2.3,4.3-3.5,9.3-4.3,14.1c-0.7,4.6-3.4,6.6-7.3,7.4
	c-4.7,1-9.4,1.8-14.1,2.4c-2.3,0.3-5.3,0.6-6.8-0.6c-7.7-6.3-15.6,0.3-23.3-1c-1.4-0.2-2.9,0.5-4.2,0.3c-5.3-0.7-10.1-0.5-13.6,4.3
	c-0.2,0.3-0.9,0.4-1.4,0.5c-7.5,1.6-15,3.1-22.6,4.7c-1,0.2-2.1,0.1-2.9,0.5c-7.8,4.1-15.1,9.4-23.3,12.1c-7.4,2.5-13.3,8-20.1,9.8
	c-8.3,2.2-11.2,7.8-15.2,13.5c-2.4,3.5-8.4,3.8-11.5,0.9c-0.1-0.1-0.3-0.2-0.3-0.4c-4.7-8-11.6-5.2-18.1-3.6
	c-4.3,1.1-7.7,1.3-11.7-1.4c-3.5-2.4-7.5-3.7-12.5-2.9c-7,1.1-12.5-3.8-17.6-7.9c-3.7-3-6.4-6.5-11.9-7.2c-4-0.5-8-3.7-11.4-6.4
	c-2.9-2.3-5.5-3.7-9.3-3.7c-10.1,0.1-17.6-7.1-18.1-17.3c-0.3-7.2-0.3-14.3,0.1-21.5c0.1-2.3,1.5-4.6,2.7-6.7
	c1.2-2.1,2.6-4.2,4.2-6.1c2.5-2.9,4.5-7.2,9.7-4.2c0.5,0.3,2.3-0.4,2.4-0.8c0.3-1.7,0.9-3.9,0.1-5.1c-2.4-3.8-4.7-7.9-8.1-10.5
	c-7.9-6.2-5.5-12.4-0.8-18.9c3.8-5.2,7.6-10.3,11-15.7c2.9-4.6-2.1-12.3-8-12.6c-4.5-0.2-9,0.1-13.5-0.1c-1.3-0.1-2.5-1.4-3.8-2.1
	c1.1-1.6,2-4.2,3.4-4.6c3.3-0.9,7.4,0.3,10.2-1.2c4.1-2.1,7.7-5.5,10.7-9c3.6-4.2,7.5-7.2,13-7.3c3.6-0.1,7.2,0.7,10.8,1
	c6.1,0.5,12.2,0.9,18.3,1.3c1,0.1,2.1-0.3,4.8-0.7c-3-3.3-4.8-5.8-7.2-7.8c-3.3-2.8-4.5-7.8-3.2-12.1c0.7-2,0.6-4.8-0.3-6.7
	c-2.3-5-2.1-8.8,2.1-13c4.3-4.4,7.3-10.1,11.3-14.8c3-3.6,6.2-7.3,10.1-9.8c2.6-1.8,6.5-2.3,9.8-2.4c5.4,0,10.3-0.2,15.4-2.8
	c2.9-1.5,7.1-1.1,10.5-0.3c7,1.5,14.4-3.2,21,1.9c1.8,1.4,3.7,2.8,5.2,4.5c6.1,7,15,11.5,18.8,20.6c1,2.3,1.6,5,1.6,7.5
	c-0.1,4.7-1.1,9.4-1.3,14.1c-0.1,1.4,1.1,3,1.9,4.4c1.3,2.4,2.5,5,4.3,7.1c1.3,1.5,3.7,3.2,5.4,3c4.6-0.6,8.9-2.5,13.5-3.2
	c4.2-0.6,8.6-0.4,12.9-0.4c0.7,0,1.7,1,2,1.8c1.9,4.9,5,8.3,10.4,9.3c1.2,0.2,2.1,1.9,3,3C688.4,104.4,689.8,106.2,691.3,108.2z
	 M473.7,211.5c0,4-0.1,6.6,0,9.3c0.3,11.6,10.6,17.9,21,12.5c1.4-0.7,2.7-3.1,2.7-4.8c0.1-2.4-0.5-5.1-1.8-7.1
	c-4.3-6.5-4.5-13.9-5.3-21.2c-0.3-2.6,0.3-5.4-0.3-7.9c-0.5-2.1-2.3-3.8-3.5-5.7c-1.4,1.4-2.8,2.8-4.1,4.3c-0.6,0.6-1.1,1.3-1.6,1.9
	C476.2,198.7,471.4,204.5,473.7,211.5z"/>
<g class="st6">
	<path class="st9" d="M139.2,417.8c3.5,1.7,5,0.3,6.5-1c3.1-2.7,6.4-3.8,10.6-3.2c4.8,0.8,7.4-1.4,7.7-6.1c0.3-5.6,3.1-8.7,7.7-12.1
		c5.5-4.1,13.2-6.3,15.2-14.7c1.2-5.3-0.3-9.5-3.2-13.4c-2-2.7-3.7-5.3-4.5-8.7c-1.1-4.5-5.5-7-7.4-11.1c-2.5-5.2-2.4-8.4,1.7-12.5
		c1.3-1.3,2.6-2.6,3.9-3.9c4.2-4,6.3-3.8,10.3,0.4c2.6,2.7,5.4,4.5,9.7,3c3.3-1.2,7-0.9,10.2,1.1c3.6,2.2,7.4,2.5,11.5,2.5
		c8.5,0,16.6,1.2,22.7,8c1.3,1.4,3.2,2.4,5,1.7c4.1-1.5,9.2-0.4,12.6-2.3c6.2-3.5,13.3-2.7,19.5-5.4c0.9-0.4,2.1-0.6,2.7-1.2
		c4.4-4.9,9-3.8,13.9-1c2.8,1.6,5.7,2.1,9.1,1.4c6.9-1.4,17.1,3.9,20.6,10.1c2.7,4.9,8,7.2,11.8,11c5.3,5.3,8.4,16.9,5.1,23.7
		c-2.9,5.9-7,11.3-6.1,18.6c0.2,2-1.3,3.5-2.9,4.9c-3.9,3.4-9.9,5.7-7.1,13c0.7,1.7-1,2.8-2.8,3.5c-5.7,2.1-11.4,4.3-17.4,5.5
		c-3.6,0.7-6.5,2.7-9.4,4.5c-9.1,5.8-18.2,5.8-27.7,1.1c-5.2-2.5-10.7-4.5-16.2-6.5c-3.2-1.2-4.2,0.8-4.2,3.6
		c0,4.2-0.1,8.2-1.6,12.3c-1,2.8-1.5,4.9-4.8,6.1c-2.9,1.1-1.7,5.1-3.2,7.5c-1,1.5-1.2,3.8-3.4,3.8c-4.4-0.1-5.4,2.5-5,6.2
		c0.3,2.7-0.8,5.2-1.3,7.8c-1,4.7-4.1,6.6-8.8,6.1c-6-0.6-9.6,1.4-11.9,7.3c-1.1,2.9-2.8,4.7-5.8,4.6c-6.9-0.2-13.5,1.1-20.2,2.5
		c-2.9,0.6-4.9-0.3-6-3c-1-2.5-2.8-4.1-5.3-4.9c-5.4-1.9-10.6-4.4-16.7-4.4c-7.4,0-9.6-2.5-10-10.1c-0.3-6.8-1.4-8.3-8.1-9.8
		c-2.9-0.6-3.9-2.2-3.8-4.8c0.2-3.7-0.9-7.7,2.1-11c0.9-0.9,0.6-1.5-0.6-2.3c-4.8-3.2-5.1-15.6-0.7-19.1c0.4-0.3,0.9-0.5,1.3-0.8
		c1.6-1.6,5.1-3.3,4.2-5c-1.4-2.5-4.3-0.4-6.6,0.3c-1.2,0.4-2.8,0.8-3.9,0.3c-5.9-2.5-12.2-2-18.2-1.5c-7.4,0.6-13.6-1.9-19.7-5.4
		c-3-1.7-3.8-4.7-3.7-7.7c0.2-4.6-1.1-7.3-6.3-7.2c-3.2,0.1-4.5-2.2-5.8-5.1c-4.3-9.7,0.5-17.7,4-26.1c5-12,13.9-21.4,22-31.3
		c3-3.7,7-6.7,9.5-11.1c1.1-2,3.7-2,5.9-2.1c2.8-0.1,5.7,0,8.5,0c2.7,0,4.4,1.4,4.7,4.1c0.9,6.8,4.9,10.7,11.5,11.9
		c3.1,0.6,5.7,1.8,7.7,4.2c4,4.9,9.7,8,13.4,13.2c1.5,2.2,3.8,2.2,6.3,1.8c6.2-0.9,9.3,2,8.3,8.3c-0.8,4.7-2,9.4-2.3,14.2
		c0,0.5-0.1,1.1-0.4,1.4c-6.2,6.5-9.4,15.8-17.8,20.3C148.7,407,146.1,414.2,139.2,417.8z"/>
</g>
<path class="st10" d="M407,317.6c8,10.6,12.2,21.3,0.3,33.1c-5.5-0.4-12.8-0.9-20.7-1.5c-0.2-3.8-0.3-7.8-0.5-11.9
	c-5.5,0-6.5,1.7-5.5,6.8c0.4,2-0.2,4.1-0.3,6.2c-1.9-1.7-4.9-3.2-5.6-5.3c-1.1-3.4-1.7-5.7-5.4-4.2c-0.7,4.3-0.7,8.5-2.2,12.1
	c-2.9,6.8-10.7,8.7-16.4,3.9c-4.3-3.6-8.1-4-13.6-3c-3.3,0.6-8.9-2.4-11-5.4c-5-7.2-14-11.8-22.6-10.5c-2.1,0.3-5.2-2.1-6.8-4.1
	c-0.8-1,0.4-5.3,1.5-5.7c8.1-2.4,10.5-10.1,15.4-15.5c3.4-3.8,5.8-8.6,9.4-12.2c3.3-3.3,7.7-5.5,11.6-8.1c2.2-1.5,4.4-2.9,6.6-4.4
	c4.9-3.2,9.8-6.5,14.8-9.6c0.8-0.5,2.2-0.2,3.3,0c8.5,1.8,17,3.5,25.5,5.5c2,0.5,4.2,1.4,5.7,2.8c5.2,4.9,12.1,4.6,18.3,6.8
	c3.2,1.1,5.9,2.4,6.7,5.8c0.2,0.9-0.3,2.7-0.8,2.9c-4.7,1.5-2.6,4.9-1.9,7.4C414.2,315.9,414.4,315.9,407,317.6z"/>
</svg>
